<svg width="10" height="19" viewBox="0 0 10 19" fill="none" xmlns="http://www.w3.org/2000/svg">
<path d="M7.96937 10.7447L7.96937 8.76508H9.94894V10.7447L7.96937 10.7447Z" fill="#40464D"/>
<path d="M5.98979 12.7242V10.7447H7.96937V12.7242H5.98979Z" fill="#40464D"/>
<path d="M5.98979 6.78551V8.76508H7.96937V6.78551H5.98979Z" fill="#40464D"/>
<path d="M4.01022 14.7038L4.01022 12.7242H5.98979V14.7038H4.01022Z" fill="#40464D"/>
<path d="M4.01022 4.80593V6.78551L5.98979 6.78551L5.98979 4.80593L4.01022 4.80593Z" fill="#40464D"/>
<path d="M2.03064 16.6834L2.03064 14.7038H4.01022V16.6834H2.03064Z" fill="#40464D"/>
<path d="M2.03064 2.82636L2.03064 4.80593H4.01022L4.01022 2.82636H2.03064Z" fill="#40464D"/>
<path d="M0.0510645 18.663L0.0510645 16.6834H2.03064V18.663H0.0510645Z" fill="#40464D"/>
<path d="M0.0510645 0.846781L0.0510645 2.82636H2.03064V0.846781H0.0510645Z" fill="#40464D"/>
</svg>
