<svg width="11" height="19" viewBox="0 0 11 19" fill="none" xmlns="http://www.w3.org/2000/svg">
<path d="M2.69363 10.7447L2.69363 8.76508H0.714055V10.7447L2.69363 10.7447Z" fill="#40464D"/>
<path d="M4.67321 12.7242V10.7447H2.69363V12.7242H4.67321Z" fill="#40464D"/>
<path d="M4.67321 6.78551V8.76508H2.69363V6.78551H4.67321Z" fill="#40464D"/>
<path d="M6.65278 14.7038L6.65278 12.7242H4.67321V14.7038H6.65278Z" fill="#40464D"/>
<path d="M6.65278 4.80593V6.78551L4.67321 6.78551L4.67321 4.80593L6.65278 4.80593Z" fill="#40464D"/>
<path d="M8.63236 16.6834V14.7038H6.65278V16.6834H8.63236Z" fill="#40464D"/>
<path d="M8.63236 2.82636V4.80593H6.65278L6.65278 2.82636H8.63236Z" fill="#40464D"/>
<path d="M10.6119 18.663V16.6834H8.63236V18.663H10.6119Z" fill="#40464D"/>
<path d="M10.6119 0.846781L10.6119 2.82636H8.63236L8.63236 0.846781H10.6119Z" fill="#40464D"/>
</svg>
