<svg width="24" height="24" viewBox="0 0 24 24" fill="none" xmlns="http://www.w3.org/2000/svg">
<path d="M11 15H13V17H11V15Z" fill="#40464D"/>
<path d="M9 13H11L11 15H9V13Z" fill="#40464D"/>
<path d="M15 13L13 13L13 15L15 15L15 13Z" fill="#40464D"/>
<path d="M7 11H9V13H7V11Z" fill="#40464D"/>
<path d="M17 11H15V13H17V11Z" fill="#40464D"/>
<path d="M5 9H7L7 11H5V9Z" fill="#40464D"/>
<path d="M19 9H17V11H19V9Z" fill="#40464D"/>
<path d="M3 7H5V9H3L3 7Z" fill="#40464D"/>
<path d="M21 7H19V9H21V7Z" fill="#40464D"/>
</svg>
