<svg width="24" height="25" viewBox="0 0 24 25" fill="none" xmlns="http://www.w3.org/2000/svg">
<path d="M11 15.5H13V17.5H11V15.5Z" fill="white"/>
<path d="M9 13.5H11L11 15.5H9V13.5Z" fill="white"/>
<path d="M15 13.5L13 13.5L13 15.5L15 15.5L15 13.5Z" fill="white"/>
<path d="M7 11.5H9V13.5H7V11.5Z" fill="white"/>
<path d="M17 11.5H15V13.5H17V11.5Z" fill="white"/>
<path d="M5 9.5H7L7 11.5H5V9.5Z" fill="white"/>
<path d="M19 9.5H17V11.5H19V9.5Z" fill="white"/>
<path d="M3 7.5H5V9.5H3L3 7.5Z" fill="white"/>
<path d="M21 7.5H19V9.5H21V7.5Z" fill="white"/>
</svg>
