<svg width="474" height="51" viewBox="0 0 474 51" fill="none" xmlns="http://www.w3.org/2000/svg">
<path d="M75.7241 1.5L58.7881 45.7942H67.9077L71.3818 36.588H89.3599L92.834 45.7942H101.866L85.0172 1.5H75.7241ZM74.5085 28.4239L80.4141 12.8774L86.3201 28.4239H74.5085Z" fill="black"/>
<path d="M180.895 14.0947C172.036 14.0947 164.827 21.3036 164.827 30.1621C164.827 39.021 172.036 46.2299 180.895 46.2299C189.753 46.2299 196.962 38.9344 196.962 30.1621C196.962 21.3036 189.753 14.0947 180.895 14.0947ZM180.895 38.0658C176.552 38.0658 173.078 34.5917 173.078 30.2491C173.078 25.9067 176.552 22.4327 180.895 22.4327C185.237 22.4327 188.711 25.9067 188.711 30.2491C188.711 34.5917 185.237 38.0658 180.895 38.0658Z" fill="black"/>
<path d="M112.718 34.3403L105.423 14.7119H96.738L108.55 45.8046H117.148L128.786 14.7119H120.101L112.718 34.3403Z" fill="black"/>
<path d="M156.056 6.46094H147.805V14.7116H142.941V22.094H147.805V35.2955C147.805 42.7646 151.974 45.9782 157.706 45.9782C159.964 45.9782 161.875 45.5439 163.438 44.8491V37.2063C163.438 37.2063 162.049 37.7271 160.398 37.7271C157.88 37.7271 156.056 36.772 156.056 33.3848V22.0071H163.438V14.6247H156.056V6.46094Z" fill="black"/>
<path d="M135.563 12.4435C138.873 12.4435 141.556 9.76061 141.556 6.45095C141.556 3.14128 138.873 0.458008 135.563 0.458008C132.253 0.458008 129.57 3.14128 129.57 6.45095C129.57 9.76061 132.253 12.4435 135.563 12.4435Z" fill="black"/>
<path d="M139.73 14.7119H131.479V45.8046H139.73V14.7119Z" fill="black"/>
<path d="M16.8345 50.1495C25.7084 50.1495 32.9019 42.956 32.9019 34.0821C32.9019 25.2081 25.7084 18.0146 16.8345 18.0146C7.96059 18.0146 0.76709 25.2081 0.76709 34.0821C0.76709 42.956 7.96059 50.1495 16.8345 50.1495Z" fill="#04E061"/>
<path d="M44.7913 48.1401C50.1634 48.1401 54.5184 43.7852 54.5184 38.4126C54.5184 33.0405 50.1634 28.6855 44.7913 28.6855C39.4188 28.6855 35.0638 33.0405 35.0638 38.4126C35.0638 43.7852 39.4188 48.1401 44.7913 48.1401Z" fill="#FF4053"/>
<path d="M19.8662 15.8351C23.1763 15.8351 25.8592 13.1522 25.8592 9.84255C25.8592 6.53254 23.1763 3.84961 19.8662 3.84961C16.5566 3.84961 13.8737 6.53254 13.8737 9.84255C13.8737 13.1522 16.5566 15.8351 19.8662 15.8351Z" fill="#965EEB"/>
<path d="M40.9803 26.609C48.2232 26.609 54.0949 20.7374 54.0949 13.4945C54.0949 6.25154 48.2232 0.379883 40.9803 0.379883C33.7374 0.379883 27.8657 6.25154 27.8657 13.4945C27.8657 20.7374 33.7374 26.609 40.9803 26.609Z" fill="#00AAFF"/>
<path d="M401.911 40.1245C403.016 40.6015 403.518 41.7061 403.518 42.8358C403.518 44.4424 402.388 45.773 400.003 45.773H393.2V34.4258H399.928C402.313 34.4258 403.442 35.7312 403.442 37.3881C403.442 38.4927 403.016 39.5973 401.911 40.1245ZM399.827 39.3462C401.032 39.3462 401.786 38.7688 401.786 37.6391C401.786 36.5094 401.032 35.932 399.827 35.932H394.857V39.3462H399.827ZM399.903 44.2667C401.108 44.2667 401.861 43.6893 401.861 42.5596C401.861 41.4299 401.108 40.8525 399.903 40.8525H394.857V44.2667H399.903Z" fill="black"/>
<path d="M390.631 40.0986C390.631 43.5379 388.146 46.0985 384.807 46.0985C381.443 46.0985 378.958 43.5379 378.958 40.0986C378.958 36.6593 381.443 34.0986 384.807 34.0986C388.146 34.0986 390.631 36.6593 390.631 40.0986ZM388.974 40.0986C388.974 37.6384 387.317 35.6049 384.807 35.6049C382.297 35.6049 380.615 37.6384 380.615 40.0986C380.615 42.5588 382.297 44.5923 384.807 44.5923C387.317 44.5923 388.974 42.5588 388.974 40.0986Z" fill="black"/>
<path d="M377.495 48.9361H375.838V45.773H365.244V34.4258H366.901V44.2667H374.005V34.4258H375.662V44.2667H377.495V48.9361Z" fill="black"/>
<path d="M361.08 40.1245C362.185 40.6015 362.687 41.7061 362.687 42.8358C362.687 44.4424 361.557 45.773 359.172 45.773H352.369V34.4258H359.097C361.482 34.4258 362.611 35.7312 362.611 37.3881C362.611 38.4927 362.185 39.5973 361.08 40.1245ZM358.996 39.3462C360.201 39.3462 360.955 38.7688 360.955 37.6391C360.955 36.5094 360.201 35.932 358.996 35.932H354.026V39.3462H358.996ZM359.072 44.2667C360.277 44.2667 361.03 43.6893 361.03 42.5596C361.03 41.4299 360.277 40.8525 359.072 40.8525H354.026V44.2667H359.072Z" fill="black"/>
<path d="M344.035 34.0986C347.122 34.0986 349.306 35.7053 349.306 38.4919V45.7722H347.65V44.3663C346.721 45.4207 345.365 46.0985 343.558 46.0985C340.922 46.0985 338.863 44.8684 338.863 42.4082C338.863 39.7973 341.047 38.7178 343.658 38.7178H347.65V38.4919C347.65 36.4333 346.068 35.6049 343.984 35.6049C342.202 35.6049 340.922 36.4333 340.445 37.5128H338.662C339.315 35.379 341.374 34.0986 344.035 34.0986ZM347.65 41.1028V40.2241H343.608C341.7 40.2241 340.52 40.9521 340.52 42.4082C340.52 43.8642 341.775 44.5923 343.583 44.5923C346.219 44.5923 347.65 42.8852 347.65 41.1028Z" fill="black"/>
<path d="M337.358 48.9361H335.701V45.773H325.508V48.9361H323.851V44.2667H325.082C326.312 43.2625 326.663 41.1789 326.663 39.1203V34.4258H335.525V44.2667H337.358V48.9361ZM328.32 39.0952C328.32 40.8023 328.119 42.9362 327.165 44.2667H333.868V35.932H328.32V39.0952Z" fill="black"/>
<path d="M323.266 40.0986C323.266 43.5379 320.781 46.0985 317.442 46.0985C314.078 46.0985 311.593 43.5379 311.593 40.0986C311.593 36.6593 314.078 34.0986 317.442 34.0986C320.781 34.0986 323.266 36.6593 323.266 40.0986ZM321.609 40.0986C321.609 37.6384 319.952 35.6049 317.442 35.6049C314.932 35.6049 313.25 37.6384 313.25 40.0986C313.25 42.5588 314.932 44.5923 317.442 44.5923C319.952 44.5923 321.609 42.5588 321.609 40.0986Z" fill="black"/>
<path d="M309.866 40.0986C309.866 43.2366 307.908 46.0985 304.142 46.0985C302.26 46.0985 300.778 45.245 300.05 44.3412V50.8935H298.393V34.425H300.05V35.8559C300.778 34.9522 302.26 34.0986 304.142 34.0986C307.908 34.0986 309.866 36.9605 309.866 40.0986ZM308.209 40.0986C308.209 37.6886 306.577 35.6049 304.142 35.6049C301.958 35.6049 300 37.1112 300 40.0986C300 43.086 301.958 44.5923 304.142 44.5923C306.577 44.5923 308.209 42.5086 308.209 40.0986Z" fill="black"/>
<path d="M284.71 34.4258H295.053V45.773H293.396V35.932H286.366V45.773H284.71V34.4258Z" fill="black"/>
<path d="M268.593 45.773H266.107L271.078 41.7061H270.626C267.789 41.7061 266.509 39.999 266.509 38.0659C266.509 36.1329 267.789 34.4258 270.626 34.4258H276.224V45.773H274.567V41.7061H273.588L268.593 45.773ZM270.701 40.1998H274.567V35.932H270.701C269.145 35.932 268.166 36.7103 268.166 38.0659C268.166 39.4216 269.145 40.1998 270.701 40.1998Z" fill="black"/>
<path d="M255.449 34.4258H264.185V45.773H262.529V35.932H257.106V39.2709C257.106 42.1579 257.056 45.773 253.34 45.773H252.863V44.1914H253.089C255.399 44.1914 255.449 41.5303 255.449 39.3211V34.4258Z" fill="black"/>
<path d="M251.352 48.9361H249.696V45.773H239.503V48.9361H237.846V44.2667H239.076C240.307 43.2625 240.658 41.1789 240.658 39.1203V34.4258H249.52V44.2667H251.352V48.9361ZM242.315 39.0952C242.315 40.8023 242.114 42.9362 241.16 44.2667H247.863V35.932H242.315V39.0952Z" fill="black"/>
<path d="M466.226 23.2261H463.74L468.711 19.1592H468.259C465.422 19.1592 464.142 17.4521 464.142 15.519C464.142 13.586 465.422 11.8789 468.259 11.8789H473.858V23.2261H472.201V19.1592H471.222L466.226 23.2261ZM468.335 17.6529H472.201V13.3852H468.335C466.778 13.3852 465.799 14.1634 465.799 15.519C465.799 16.8747 466.778 17.6529 468.335 17.6529Z" fill="black"/>
<path d="M453.024 23.2261H451.367V11.8789H453.024V20.6654L460.279 11.8789H461.936V23.2261H460.279V14.4396L453.024 23.2261Z" fill="black"/>
<path d="M449.101 26.3892H447.444V23.2261H436.85V11.8789H438.507V21.7198H445.611V11.8789H447.268V21.7198H449.101V26.3892Z" fill="black"/>
<path d="M431.857 11.8789H433.514V23.2261H431.857V18.2805H424.602V23.2261H422.945V11.8789H424.602V16.7743H431.857V11.8789Z" fill="black"/>
<path d="M420.58 17.4281C420.58 17.6541 420.58 17.88 420.53 18.1562H411.141C411.367 20.3402 413.074 22.0473 415.258 22.0473C416.94 22.0473 418.07 21.3695 418.723 20.1896H420.43C419.626 22.3235 417.744 23.5536 415.258 23.5536C411.894 23.5536 409.434 21.0683 409.434 17.5286C409.434 14.1144 411.769 11.5537 415.158 11.5537C418.296 11.5537 420.58 14.1395 420.58 17.4281ZM411.141 16.6499H418.873C418.622 14.6416 417.292 13.06 415.158 13.06C412.873 13.06 411.417 14.516 411.141 16.6499Z" fill="black"/>
<path d="M407.908 17.5537C407.908 20.6917 405.95 23.5536 402.185 23.5536C400.302 23.5536 398.821 22.7001 398.093 21.7963V28.3485H396.436V11.8801H398.093V13.311C398.821 12.4073 400.302 11.5537 402.185 11.5537C405.95 11.5537 407.908 14.4156 407.908 17.5537ZM406.252 17.5537C406.252 15.1436 404.62 13.06 402.185 13.06C400.001 13.06 398.042 14.5662 398.042 17.5537C398.042 20.5411 400.001 22.0473 402.185 22.0473C404.62 22.0473 406.252 19.9637 406.252 17.5537Z" fill="black"/>
<path d="M394.071 17.4281C394.071 17.6541 394.071 17.88 394.021 18.1562H384.632C384.857 20.3402 386.565 22.0473 388.749 22.0473C390.431 22.0473 391.56 21.3695 392.213 20.1896H393.92C393.117 22.3235 391.234 23.5536 388.749 23.5536C385.385 23.5536 382.924 21.0683 382.924 17.5286C382.924 14.1144 385.259 11.5537 388.648 11.5537C391.786 11.5537 394.071 14.1395 394.071 17.4281ZM384.632 16.6499H392.364C392.113 14.6416 390.782 13.06 388.648 13.06C386.364 13.06 384.908 14.516 384.632 16.6499Z" fill="black"/>
<path d="M372.504 6.43164H374.161V11.8793H375.366C378.88 11.8793 381.366 14.2642 381.366 17.5278C381.366 20.8918 379.182 23.2265 375.366 23.2265H374.161V28.3478H372.504V23.2265H371.299C367.458 23.2265 365.274 20.8918 365.274 17.5278C365.274 14.2642 367.784 11.8793 371.274 11.8793H372.504V6.43164ZM375.24 13.3856H374.161V21.7202H375.265C378.278 21.7202 379.709 19.9127 379.709 17.5278C379.709 15.1429 378.052 13.3856 375.24 13.3856ZM372.504 13.3856H371.424C368.613 13.3856 366.931 15.1429 366.931 17.5278C366.931 19.9127 368.362 21.7202 371.374 21.7202H372.504V13.3856Z" fill="black"/>
<path d="M361.085 11.8789H362.742V23.2261H361.085V18.2805H353.83V23.2261H352.173V11.8789H353.83V16.7743H361.085V11.8789Z" fill="black"/>
<path d="M349.604 17.5537C349.604 20.993 347.119 23.5536 343.78 23.5536C340.416 23.5536 337.931 20.993 337.931 17.5537C337.931 14.1144 340.416 11.5537 343.78 11.5537C347.119 11.5537 349.604 14.1144 349.604 17.5537ZM347.947 17.5537C347.947 15.0934 346.29 13.06 343.78 13.06C341.27 13.06 339.588 15.0934 339.588 17.5537C339.588 20.0139 341.27 22.0473 343.78 22.0473C346.29 22.0473 347.947 20.0139 347.947 17.5537Z" fill="black"/>
<path d="M327.87 11.8789H329.526V17.1257L335.401 11.8789H337.535L331.158 17.5525L337.56 23.2261H335.401L329.526 18.2805V23.2261H327.87V11.8789Z" fill="black"/>
<path d="M319.553 17.4777V15.5195H325.629V17.4777H319.553Z" fill="black"/>
<path d="M318.247 14.9177H316.465C315.837 13.8382 314.582 13.06 313.026 13.06C310.54 13.06 308.808 15.0934 308.808 17.5537C308.808 20.0139 310.54 22.0473 313.026 22.0473C314.582 22.0473 315.837 21.2691 316.465 20.1896H318.247C317.444 22.2482 315.511 23.5536 313.026 23.5536C309.712 23.5536 307.151 20.9679 307.151 17.5537C307.151 14.1395 309.712 11.5537 313.026 11.5537C315.511 11.5537 317.444 12.8591 318.247 14.9177Z" fill="black"/>
<path d="M305.59 17.4281C305.59 17.6541 305.59 17.88 305.539 18.1562H296.15C296.376 20.3402 298.083 22.0473 300.268 22.0473C301.95 22.0473 303.079 21.3695 303.732 20.1896H305.439C304.636 22.3235 302.753 23.5536 300.268 23.5536C296.904 23.5536 294.443 21.0683 294.443 17.5286C294.443 14.1144 296.778 11.5537 300.167 11.5537C303.305 11.5537 305.59 14.1395 305.59 17.4281ZM296.15 16.6499H303.883C303.632 14.6416 302.301 13.06 300.167 13.06C297.883 13.06 296.427 14.516 296.15 16.6499Z" fill="black"/>
<path d="M290.455 11.8789H292.112V23.2261H290.455V18.2805H283.2V23.2261H281.543V11.8789H283.2V16.7743H290.455V11.8789Z" fill="black"/>
<path d="M277.465 17.5788C278.268 18.0055 278.82 18.8089 278.82 20.0892C278.82 21.972 276.812 23.5536 273.9 23.5536C270.636 23.5536 268.904 21.7712 268.427 20.0641H270.235C270.787 21.3193 271.841 22.0473 273.9 22.0473C275.532 22.0473 277.163 21.3193 277.163 19.9637C277.163 18.8591 276.461 18.3068 275.23 18.3068H272.419V16.8005H275.205C276.36 16.8005 277.113 16.2733 277.113 15.1687C277.113 13.8633 275.632 13.06 273.875 13.06C272.042 13.06 270.787 13.6625 270.26 14.9679H268.477C268.954 13.311 270.536 11.5537 273.9 11.5537C276.235 11.5537 278.77 12.7838 278.77 15.0934C278.77 16.0976 278.444 16.9512 277.465 17.5788Z" fill="black"/>
<path d="M257.058 23.2261H255.401V11.8789H257.058V20.6654L264.313 11.8789H265.97V23.2261H264.313V14.4396L257.058 23.2261Z" fill="black"/>
<path d="M253.085 18.433C253.085 21.0438 251.403 23.2279 247.587 23.2279H239.955V6.55859H252.256V8.14017H241.687V13.6631H247.587C251.403 13.6631 253.085 15.8472 253.085 18.433ZM251.352 18.433C251.352 16.2991 249.896 15.2447 247.662 15.2447H241.687V21.6463H247.662C249.896 21.6463 251.352 20.5919 251.352 18.433Z" fill="black"/>
</svg>
