<svg  viewBox="0 0 146 37" fill="none" xmlns="http://www.w3.org/2000/svg">
<path d="M55.7267 0.833008L43.1356 33.7634H49.9156L52.4984 26.9191H65.8642L68.447 33.7634H75.162L62.6356 0.833008H55.7267ZM54.8229 20.8495L59.2135 9.29148L63.6043 20.8495H54.8229Z" fill="black"/>
<path d="M133.915 10.1953C127.329 10.1953 121.97 15.5548 121.97 22.1406C121.97 28.7267 127.329 34.0861 133.915 34.0861C140.502 34.0861 145.861 28.6623 145.861 22.1406C145.861 15.5548 140.502 10.1953 133.915 10.1953ZM133.915 28.0165C130.687 28.0165 128.104 25.4338 128.104 22.2052C128.104 18.9769 130.687 16.3941 133.915 16.3941C137.144 16.3941 139.727 18.9769 139.727 22.2052C139.727 25.4338 137.144 28.0165 133.915 28.0165Z" fill="black"/>
<path d="M83.2299 25.247L77.8061 10.6543H71.3492L80.1306 33.7701H86.5228L95.1752 10.6543H88.7183L83.2299 25.247Z" fill="black"/>
<path d="M115.449 4.52051H109.315V10.6545H105.699V16.1429H109.315V25.9575C109.315 31.5104 112.414 33.8995 116.676 33.8995C118.355 33.8995 119.775 33.5766 120.937 33.0601V27.3781C120.937 27.3781 119.904 27.7653 118.678 27.7653C116.805 27.7653 115.449 27.0552 115.449 24.537V16.0783H120.937V10.5898H115.449V4.52051Z" fill="black"/>
<path d="M100.214 8.96823C102.674 8.96823 104.669 6.97362 104.669 4.51306C104.669 2.05249 102.674 0.0576172 100.214 0.0576172C97.7531 0.0576172 95.7582 2.05249 95.7582 4.51306C95.7582 6.97362 97.7531 8.96823 100.214 8.96823Z" fill="black"/>
<path d="M103.312 10.6543H97.1775V33.7701H103.312V10.6543Z" fill="black"/>
<path d="M11.9453 36.9999C18.5426 36.9999 23.8906 31.6519 23.8906 25.0547C23.8906 18.4574 18.5426 13.1094 11.9453 13.1094C5.34799 13.1094 0 18.4574 0 25.0547C0 31.6519 5.34799 36.9999 11.9453 36.9999Z" fill="#04E061"/>
<path d="M32.7297 35.5064C36.7236 35.5064 39.9612 32.2687 39.9612 28.2746C39.9612 24.2806 36.7236 21.043 32.7297 21.043C28.7355 21.043 25.4978 24.2806 25.4978 28.2746C25.4978 32.2687 28.7355 35.5064 32.7297 35.5064Z" fill="#FF4053"/>
<path d="M14.1991 11.4897C16.66 11.4897 18.6546 9.49511 18.6546 7.03454C18.6546 4.57372 16.66 2.5791 14.1991 2.5791C11.7386 2.5791 9.74396 4.57372 9.74396 7.03454C9.74396 9.49511 11.7386 11.4897 14.1991 11.4897Z" fill="#965EEB"/>
<path d="M29.8963 19.5C35.281 19.5 39.6463 15.1347 39.6463 9.75C39.6463 4.36527 35.281 0 29.8963 0C24.5116 0 20.1463 4.36527 20.1463 9.75C20.1463 15.1347 24.5116 19.5 29.8963 19.5Z" fill="#00AAFF"/>
</svg>
