<svg width="48" height="48" viewBox="0 0 48 48" fill="none" xmlns="http://www.w3.org/2000/svg">
<path fill-rule="evenodd" clip-rule="evenodd" d="M18.0074 38.4464L5.42358 25.8254C5.57516 25.518 7.67832 23.4991 7.90709 23.2703C8.20183 22.9749 10.1443 20.9419 10.4474 20.7861C10.7352 20.9335 12.0383 22.3159 12.3745 22.6521C13.0615 23.3391 17.8116 28.1784 18.1225 28.358L37.1366 9.29275L42.1688 14.2864C41.7674 14.8078 22.8643 33.6626 21.0741 35.4521C20.6488 35.8773 18.3036 38.3257 18.0074 38.4464ZM0.00533726 24.8864C0.0649864 28.3601 1.07762 31.6977 2.39411 34.4808C3.63972 37.1152 4.94428 38.7068 6.73586 40.6766C7.34779 41.3496 8.38078 42.2345 9.09727 42.8142C16.1745 48.5349 26.1674 49.6135 34.4853 45.5959C35.7822 44.9699 38.8124 43.0949 39.8706 41.9847C40.1225 41.7201 40.3969 41.5924 40.6432 41.278C40.9555 40.8808 41.1064 40.8261 41.3955 40.5524L42.119 39.7356C42.345 39.4689 42.5569 39.2163 42.7843 38.9201C46.2355 34.4205 48.2369 29.1356 47.9773 23.1608C47.832 19.8198 46.9836 16.1854 45.5801 13.5412C45.2123 12.8478 44.9127 12.2366 44.5162 11.5861C43.8467 10.4885 43.4095 9.87451 42.6313 8.9103C42.2909 8.48854 41.985 8.09626 41.5941 7.72995C41.4615 7.60503 41.3716 7.47872 41.2439 7.33977L40.0924 6.21135C39.9499 6.06258 39.8285 6.01135 39.6832 5.87872C39.3969 5.61696 39.1927 5.44784 38.8867 5.19802C37.2769 3.88714 35.2495 2.71942 33.232 1.85556C30.2615 0.583982 26.6018 -0.125492 23.0804 0.0183678C18.0152 0.225385 13.6152 1.88574 9.73586 4.70188C9.33516 4.9931 7.54007 6.46047 7.29586 6.76012C6.79621 7.37065 6.81797 7.18679 6.1913 7.93626C6.05797 8.09556 5.96253 8.14819 5.83341 8.31591C4.0299 10.657 3.13797 11.6696 1.8299 14.7896C0.486741 17.9938 -0.0592241 21.1335 0.00533726 24.8864Z" fill="url(#paint0_linear_7_51)"/>
<path fill-rule="evenodd" clip-rule="evenodd" d="M18.0074 38.4457C18.3036 38.325 20.6488 35.8766 21.0741 35.4513C22.8643 33.6618 41.7674 14.8071 42.1688 14.2857L37.1366 9.29199L18.1225 28.3573C17.8117 28.1776 13.0615 23.3383 12.3745 22.6513C12.0383 22.3152 10.7352 20.9327 10.4474 20.7853C10.1443 20.9411 8.20183 22.9741 7.90709 23.2695C7.67832 23.4983 5.57516 25.5173 5.42358 25.8246L18.0074 38.4457Z" fill="#F7F5F5"/>
<defs>
<linearGradient id="paint0_linear_7_51" x1="0.000244141" y1="24" x2="34.3723" y2="23.9811" gradientUnits="userSpaceOnUse">
<stop stop-color="#00AAFF"/>
<stop offset="1" stop-color="#965EEB"/>
</linearGradient>
</defs>
</svg>
