<svg viewBox="0 0 40 53" fill="none" xmlns="http://www.w3.org/2000/svg">
<path d="M20.1846 1.84229C32.6802 1.87432 41.2865 13.6084 37.6631 25.1519V25.1528C36.965 27.3797 35.5948 29.6626 33.9346 31.9556C32.2615 34.2663 30.4266 36.4168 28.7588 38.5405L28.7578 38.5415L19.8506 49.9126L10.6172 38.1724V38.1714L9.46875 36.7046C8.28059 35.1732 6.99582 33.464 5.82031 31.7046C4.34065 29.4899 3.0918 27.2785 2.41504 25.311L2.28711 24.9204C-1.19105 13.6614 7.27219 1.81035 20.1846 1.84229Z" fill="white" stroke="url(#paint0_linear_5669_2406)" stroke-width="3"/>
<path d="M14.707 31.4582C18.6292 31.4582 21.8086 28.076 21.8086 23.9037C21.8086 19.7313 18.6292 16.3491 14.707 16.3491C10.7849 16.3491 7.60547 19.7313 7.60547 23.9037C7.60547 28.076 10.7849 31.4582 14.707 31.4582Z" fill="#04E061"/>
<path d="M27.065 30.5138C29.4394 30.5138 31.3642 28.4662 31.3642 25.9402C31.3642 23.4143 29.4394 21.3667 27.065 21.3667C24.6904 21.3667 22.7656 23.4143 22.7656 25.9402C22.7656 28.4662 24.6904 30.5138 27.065 30.5138Z" fill="#FF4053"/>
<path d="M16.0471 15.3248C17.5101 15.3248 18.6959 14.0633 18.6959 12.5072C18.6959 10.9509 17.5101 9.68945 16.0471 9.68945C14.5843 9.68945 13.3984 10.9509 13.3984 12.5072C13.3984 14.0633 14.5843 15.3248 16.0471 15.3248Z" fill="#965EEB"/>
<path d="M25.3863 20.3905C28.5876 20.3905 31.1827 17.6298 31.1827 14.2243C31.1827 10.8188 28.5876 8.05811 25.3863 8.05811C22.185 8.05811 19.5898 10.8188 19.5898 14.2243C19.5898 17.6298 22.185 20.3905 25.3863 20.3905Z" fill="#00AAFF"/>
<defs>
<linearGradient id="paint0_linear_5669_2406" x1="0" y1="26.3423" x2="28.6437" y2="26.3302" gradientUnits="userSpaceOnUse">
<stop stop-color="#00AAFF"/>
<stop offset="1" stop-color="#965EEB"/>
</linearGradient>
</defs>
</svg>
