<svg  viewBox="0 0 150 139" fill="none" xmlns="http://www.w3.org/2000/svg">
<path d="M45 139C69.8532 139 90 118.853 90 94C90 69.1468 69.8532 49 45 49C20.1468 49 0 69.1468 0 94C0 118.853 20.1468 139 45 139Z" fill="#04E061"/>
<path d="M123 133C137.912 133 150 120.912 150 106C150 91.088 137.912 79 123 79C108.088 79 96 91.088 96 106C96 120.912 108.088 133 123 133Z" fill="#FF4053"/>
<path d="M53.4995 43C62.6131 43 70 35.613 70 26.5005C70 17.3869 62.6131 10 53.4995 10C44.387 10 37 17.3869 37 26.5005C37 35.613 44.387 43 53.4995 43Z" fill="#965EEB"/>
<path d="M112.5 73C132.658 73 149 56.6582 149 36.5C149 16.3418 132.658 0 112.5 0C92.3418 0 76 16.3418 76 36.5C76 56.6582 92.3418 73 112.5 73Z" fill="#00AAFF"/>
</svg>
