<svg viewBox="0 0 36 36" fill="none" xmlns="http://www.w3.org/2000/svg">
<path fill-rule="evenodd" clip-rule="evenodd" d="M20.9424 16.6162C22.4989 15.7977 22.7509 18.9782 21.7405 19.4143C20.184 20.0881 19.9413 17.1431 20.9424 16.6162ZM23.661 25.3859C22.6762 25.787 16.343 28.3099 15.7666 28.247C15.5472 27.8599 15.6149 26.5308 15.5869 26.0225C14.6722 25.5724 9.97941 26.0738 8.50227 21.6458C8.25025 20.8949 7.83488 21.1468 7.29816 20.6011C6.39975 19.6871 6.16639 16.3317 7.47551 15.2521C8.25258 14.6155 8.14291 15.2987 8.58861 14.1142C9.49636 11.6961 11.4145 10.7028 13.8904 10.2878C15.0969 10.0849 14.9545 10.2994 15.6639 9.80976C16.7164 9.08225 17.7268 10.0686 17.5891 7.92104C17.1504 7.53163 16.637 7.36608 16.7327 6.47535C16.889 5.00168 19.1292 5.00634 19.2832 6.46602C19.3743 7.34509 18.8749 7.54796 18.4268 7.92104C18.3848 8.36174 18.4455 8.94468 18.6275 9.30144C19.0219 9.4087 19.3439 9.39237 19.7663 9.53228C20.2703 9.6955 20.3007 9.83308 20.646 10.0266C21.4348 10.4673 25.8405 9.95433 27.4273 14.1095C27.9034 15.3523 28.0737 14.7134 28.7621 15.4549C29.5952 16.3527 29.6325 18.7544 29.1215 19.9809C28.6734 21.0558 28.013 20.8506 27.6747 21.2913C27.5417 21.4639 27.3947 22.0258 27.2826 22.2823C27.145 22.5901 27.0143 22.821 26.8183 23.1101C26.0412 24.2573 25.2338 24.7447 23.661 25.3859ZM0.0968416 19.9086C1.01859 29.0911 9.32368 36.9747 19.8736 35.8998C29.1471 34.9554 36.9109 26.7406 35.9121 16.1871C35.4104 10.8964 32.5541 6.6922 29.7562 4.36977C28.1437 3.02901 26.4566 1.90977 24.0857 1.06567C11.5802 -3.37399 -1.23328 6.65955 0.0968416 19.9086ZM14.2825 16.6068C15.8366 15.8863 16.0723 18.9782 15.0899 19.4049C13.4634 20.1115 13.2907 17.0662 14.2825 16.6068ZM16.532 12.4493C14.6045 12.5496 12.404 12.7804 11.4262 13.9416C10.3901 15.1751 10.2618 17.5605 10.4858 19.4865C10.7355 21.6201 11.4799 22.6344 13.3864 23.1544C15.1599 23.6371 17.5541 23.6324 19.4839 23.5671C24.6271 23.3922 26.0225 21.8953 25.5302 16.5462C25.3341 14.394 24.4987 13.3657 22.6412 12.8574C20.9097 12.384 18.4105 12.349 16.532 12.4493Z" fill="white"/>
</svg>
