<svg  viewBox="0 0 36 36" fill="none" xmlns="http://www.w3.org/2000/svg">
<path d="M17.1737 7.10466C17.33 5.63117 19.57 5.63565 19.7244 7.0949C19.8154 7.97372 19.3159 8.17709 18.868 8.54997C18.826 8.99066 18.8862 9.57407 19.0682 9.93083C19.4624 10.0381 19.7847 10.0215 20.2069 10.1613C20.7109 10.3245 20.7414 10.4629 21.0867 10.6564C21.8757 11.097 26.2811 10.5839 27.868 14.7385C28.344 15.9812 28.5146 15.3428 29.203 16.0842C30.036 16.9819 30.0734 19.384 29.5623 20.6105C29.1143 21.6852 28.4534 21.4804 28.1151 21.9211C27.9822 22.0941 27.8354 22.6549 27.7235 22.9113C27.5858 23.219 27.4555 23.4504 27.2596 23.7394C26.4825 24.8867 25.6742 25.3736 24.1014 26.0148C23.1161 26.4161 16.7865 28.938 16.2078 28.8761C15.9885 28.4891 16.0562 27.1599 16.0281 26.6515C15.1134 26.2015 10.4205 26.7031 8.94319 22.2756C8.69118 21.5248 8.27575 21.7761 7.73909 21.2306C6.84067 20.3166 6.6077 16.9606 7.91682 15.881C8.69339 15.2451 8.58351 15.9276 9.02913 14.7433C9.93683 12.3255 11.8552 11.3323 14.3309 10.9172C15.5373 10.7143 15.395 10.9282 16.1043 10.4386C17.1568 9.71114 18.1678 10.6975 18.0301 8.54997C17.5914 8.16064 17.078 7.99531 17.1737 7.10466ZM23.0819 13.4865C21.3504 13.0132 18.8509 12.978 16.9725 13.0783C15.0451 13.1786 12.8447 13.4103 11.867 14.5715C10.8312 15.8049 10.7027 18.1896 10.9266 20.1154C11.1763 22.2488 11.9207 23.2634 13.827 23.7834C15.6004 24.266 17.9948 24.2617 19.9246 24.1965C25.0677 24.0216 26.4628 22.5247 25.9705 17.176C25.7745 15.0237 24.9394 13.9948 23.0819 13.4865ZM21.3836 17.2453C22.9396 16.4276 23.1915 19.6067 22.1815 20.0431C20.625 20.717 20.3825 17.7723 21.3836 17.2453ZM14.7235 17.2365C16.2775 16.516 16.5132 19.6072 15.5311 20.0343C13.9046 20.7409 13.7317 17.6959 14.7235 17.2365Z" fill="white"/>
</svg>
