<svg width="60" height="30" viewBox="0 0 60 30" fill="none" xmlns="http://www.w3.org/2000/svg">
<g clip-path="url(#clip0_5655_2398)">
<path fill-rule="evenodd" clip-rule="evenodd" d="M43.659 14.3095C44.9177 14.2186 59.1648 14.857 59.9984 14.7571C59.1374 14.4445 34.6557 9.13789 31.9621 8.53213L28.0059 7.69797L34.97 13.2714C34.572 13.3188 34.1589 13.1943 33.7571 13.1098L15.2033 9.94077L22.557 14.5316L16.9654 14.4026C15.0508 14.3397 13.2341 14.3622 11.3154 14.2837L-0.00161437 14.0584C0.429279 14.2307 2.03265 14.4984 2.60785 14.6252C3.51829 14.8233 4.3248 14.9867 5.19116 15.1615C9.8557 16.1003 16.2788 17.5355 20.6919 18.3566C21.5198 18.5107 22.3568 18.7141 23.277 18.8959C24.1442 19.0682 24.9669 19.2357 25.8578 19.4257C27.1841 19.7078 40.1997 22.4395 41.2396 22.5811L33.8384 16.9268C34.3261 16.8784 37.3748 17.5654 38.181 17.672C39.3884 17.831 44.436 18.8987 45.9026 19.1135L49.1584 19.7199C49.4673 19.7873 50.9903 20.0787 51.2073 20.0448L43.659 14.3095Z" fill="url(#paint0_linear_5655_2398)"/>
</g>
<defs>
<linearGradient id="paint0_linear_5655_2398" x1="16.0363" y1="4.0292" x2="28.3512" y2="23.7017" gradientUnits="userSpaceOnUse">
<stop stop-color="#00AAFF"/>
<stop offset="1" stop-color="#965EEB"/>
</linearGradient>
<clipPath id="clip0_5655_2398">
<rect width="60" height="30" fill="white"/>
</clipPath>
</defs>
</svg>
