<svg width="286" height="190" viewBox="0 0 286 190" fill="none" xmlns="http://www.w3.org/2000/svg">
<g clip-path="url(#clip0_5666_2402)">
<path fill-rule="evenodd" clip-rule="evenodd" d="M100.346 112.875C103.137 111.384 136.459 98.2614 138.266 97.184C135.968 97.359 74.3357 110.411 67.5318 111.798L57.5965 113.96L79.3494 119.415C78.4862 119.929 77.41 120.07 76.401 120.29L30.5779 132.106L52.2032 134.946L39.2514 140.37C34.7972 142.185 30.6561 144.093 26.176 145.877L-0.000378435 156.937C1.16634 156.885 5.11982 155.85 6.57012 155.548C8.86297 155.064 10.8815 154.609 13.049 154.117C24.7168 151.467 40.9313 148.14 51.9006 145.481C53.9584 144.983 56.0883 144.586 58.3867 144.056C60.5535 143.558 62.6133 143.095 64.8531 142.613C68.1864 141.894 100.86 134.752 103.391 134.009L80.552 128.818C81.6195 128.21 89.3218 126.644 91.2807 126.06C94.2135 125.185 106.893 122.434 110.478 121.42L118.572 119.46C119.35 119.296 123.144 118.397 123.606 118.099L100.346 112.875Z" fill="#00AAFF"/>
<path fill-rule="evenodd" clip-rule="evenodd" d="M248.318 47.976C251.109 46.4844 284.432 33.362 286.239 32.2846C283.94 32.4596 222.308 45.5118 215.504 46.8985L205.569 49.0605L227.322 54.5156C226.459 55.0293 225.383 55.1708 224.374 55.3907L178.551 67.2063L200.176 70.0466L187.224 75.4709C182.77 77.286 178.629 79.1937 174.149 80.9777L147.972 92.0371C149.139 91.9854 153.092 90.9503 154.543 90.6486C156.836 90.1649 158.854 89.7092 161.022 89.218C172.689 86.568 188.904 83.2403 199.873 80.582C201.931 80.0834 204.061 79.6866 206.359 79.1562C208.526 78.6584 210.586 78.1955 212.826 77.7133C216.159 76.9941 248.833 69.8529 251.363 69.1096L228.525 63.9187C229.592 63.311 237.294 61.7448 239.253 61.161C242.186 60.2857 254.866 57.535 258.451 56.5204L266.544 54.5606C267.322 54.397 271.116 53.4976 271.579 53.1992L248.318 47.976Z" fill="#965EEB"/>
</g>
<defs>
<clipPath id="clip0_5666_2402">
<rect width="286" height="190" fill="white"/>
</clipPath>
</defs>
</svg>
