<svg viewBox="0 0 36 36" fill="none" xmlns="http://www.w3.org/2000/svg">
<path d="M24.71 10.1614C25.1264 10.01 25.5685 9.84574 25.9092 10.2747C26.2626 10.729 26.0599 11.3988 25.9463 11.9036L25.7451 12.8245C25.5306 13.8971 25.278 14.9697 25.0635 16.0423C25.0382 16.1937 24.9998 16.346 24.9619 16.5101L24.6719 17.8851C24.4195 19.1219 24.1294 20.3337 23.8896 21.5579C23.7382 22.3277 23.5489 23.0976 23.3975 23.8675C23.3091 24.3471 23.1827 25.2435 22.5391 25.2435C22.2488 25.2434 21.9333 25.1418 21.7188 24.9651L17.8066 22.0628C17.7563 22.0376 17.693 21.975 17.6426 21.9622L17.3018 22.2776C17.1882 22.3786 17.0873 22.4795 16.9863 22.5931C16.9232 22.6561 16.8727 22.6814 16.8096 22.7444L15.9893 23.552C15.6737 23.8676 15.2569 24.2845 14.7773 24.2845L14.8535 23.4388C14.8535 23.3252 14.8662 23.2613 14.8662 23.1477C14.8663 23.072 14.878 22.9586 14.8906 22.8704C14.8906 22.7947 14.9034 22.6687 14.916 22.5804C14.9286 22.5048 14.9289 22.3663 14.9414 22.303L14.9795 21.722C14.9795 21.6589 14.9923 21.5204 15.0049 21.4446L15.0928 20.3089C15.1559 19.8293 15.1055 20.0686 15.4336 19.7278C15.6733 19.4755 16.0015 19.2361 16.2412 18.9964L17.4404 17.8977C17.4656 17.8725 17.4914 17.8477 17.5166 17.8226C17.5418 17.7973 17.5666 17.7716 17.5918 17.7464L19.5225 15.9925C19.6739 15.8789 19.7879 15.7272 19.9268 15.6136L21.2266 14.4397C21.277 14.3893 21.3149 14.3388 21.3779 14.2884C21.4536 14.2379 21.479 14.2001 21.542 14.1497L22.8291 12.9632C22.93 12.8623 22.9685 12.8245 22.9434 12.6858C22.6405 12.5344 22.4256 12.7364 22.2236 12.8626C21.4917 13.3295 20.7592 13.8086 20.0146 14.2503C19.9642 14.2755 19.9263 14.314 19.8633 14.3518C19.3839 14.642 18.9295 14.9572 18.4375 15.2474L16.8848 16.2317C16.3548 16.5598 15.8123 16.8754 15.2949 17.2161L12.7832 18.8069C12.6663 18.8058 9.11251 17.6837 8.74512 17.5823L8.42969 17.4817C8.26562 17.4312 8 17.2921 8 17.0901C8.00004 16.8378 8.11353 16.686 8.31543 16.5472C8.63097 16.3326 9.55296 16.0044 9.91895 15.8782C10.0954 15.8026 10.2719 15.7274 10.4609 15.6643C10.9783 15.4751 11.6095 15.2227 12.1143 15.0208L16.4941 13.3294C16.6707 13.2537 16.847 13.1903 17.0361 13.1272L18.6768 12.4964C20.1281 11.9032 21.618 11.3854 23.0693 10.7923L24.71 10.1614Z" fill="white"/>
</svg>
