<svg viewBox="0 0 34 34" fill="none" xmlns="http://www.w3.org/2000/svg">
<path fill-rule="evenodd" clip-rule="evenodd" d="M17 0C26.3898 0 34 7.61025 34 17C34 26.3898 26.3898 34 17 34C7.61025 34 0 26.3898 0 17C0 7.61025 7.61025 0 17 0ZM20.1299 24.7491C20.3445 24.9258 20.66 25.0267 20.9503 25.0267C21.5939 25.0267 21.7201 24.1307 21.8085 23.6511C21.9599 22.8812 22.1492 22.1114 22.3007 21.3415C22.5405 20.1173 22.8307 18.9057 23.0832 17.6689L23.3734 16.2932C23.4113 16.1292 23.4492 15.9777 23.4744 15.8263C23.6889 14.7535 23.9414 13.6808 24.1559 12.608L24.3578 11.6867C24.4714 11.1819 24.6734 10.513 24.32 10.0587C23.9792 9.62955 23.5375 9.79362 23.121 9.94506L21.4803 10.5761C20.029 11.1693 18.5397 11.6867 17.0883 12.2799L15.4477 12.9109C15.2584 12.974 15.0817 13.0371 14.905 13.1128L10.5256 14.804C10.0208 15.0059 9.38976 15.2584 8.87231 15.4477C8.683 15.5108 8.50631 15.5865 8.32962 15.6622C7.96362 15.7884 7.04232 16.1166 6.7268 16.3311C6.52487 16.4699 6.41128 16.6214 6.41128 16.8738C6.41128 17.0757 6.67632 17.2146 6.84039 17.265L7.1559 17.366C7.5219 17.467 11.0809 18.5902 11.1945 18.5902L13.706 17C14.2235 16.6592 14.7661 16.3437 15.2962 16.0156L16.8486 15.0312C17.3408 14.7409 17.7951 14.4254 18.2747 14.1351C18.3378 14.0973 18.3757 14.0594 18.4261 14.0342C19.1708 13.5924 19.9028 13.1128 20.6347 12.6459C20.8367 12.5197 21.0512 12.3177 21.3541 12.4692C21.3794 12.608 21.3415 12.6459 21.2405 12.7468L19.9532 13.9332C19.8901 13.9837 19.8649 14.0215 19.7892 14.072C19.7261 14.1225 19.6882 14.173 19.6377 14.2235L18.3378 15.3972C18.199 15.5108 18.0854 15.6622 17.9339 15.7758L16.003 17.5301C15.9777 17.5553 15.9525 17.5806 15.9272 17.6058C15.902 17.631 15.8768 17.6563 15.8515 17.6815L14.6526 18.7795C14.4128 19.0193 14.0846 19.2591 13.8448 19.5115C13.5167 19.8523 13.5672 19.6125 13.5041 20.0921L13.4157 21.2279C13.4031 21.3036 13.3905 21.4425 13.3905 21.5056L13.3526 22.0861C13.34 22.1492 13.34 22.288 13.3274 22.3638C13.3148 22.4521 13.3022 22.5783 13.3022 22.654C13.2895 22.7424 13.2769 22.856 13.2769 22.9317C13.2769 23.0453 13.2643 23.1084 13.2643 23.222L13.1886 24.0676C13.6682 24.0676 14.0846 23.6511 14.4001 23.3356L15.2205 22.5278C15.2836 22.4647 15.3341 22.4395 15.3972 22.3764C15.4981 22.2628 15.5991 22.1618 15.7127 22.0609L16.0535 21.7454C16.1039 21.758 16.167 21.8211 16.2175 21.8463L20.1299 24.7491Z" fill="white"/>
</svg>

